<svg version="1.1" id="Layer_1" xmlns="http://www.w3.org/2000/svg" xmlns:xlink="http://www.w3.org/1999/xlink" x="0px" y="0px"
	 width="100%" viewBox="0 0 384 384" enable-background="new 0 0 384 384" xml:space="preserve">
<path fill="#000000" opacity="1.000000" stroke="none" 
	d="
M1.000000,144.000000 
	C1.000000,96.000000 1.000000,48.500000 1.000000,1.000000 
	C129.000000,1.000000 257.000000,1.000000 385.000000,1.000000 
	C385.000000,129.000000 385.000000,257.000000 385.000000,385.000000 
	C257.000000,385.000000 129.000000,385.000000 1.000000,385.000000 
	C1.000000,304.833344 1.000000,224.666672 1.000000,144.000000 
M279.388092,161.915359 
	C279.375519,163.081955 279.386871,164.249390 279.346649,165.415039 
	C278.969574,176.338760 276.895020,186.212311 265.640106,191.651810 
	C261.544495,193.631226 261.741913,198.914017 265.653381,201.350784 
	C273.812134,206.433502 280.895050,212.657364 286.676483,220.334824 
	C288.236633,222.406540 290.223206,223.673874 292.619141,224.660843 
	C313.718536,233.352188 335.641846,239.784607 356.851105,248.170837 
	C362.630585,250.456085 363.080383,250.169708 364.656982,244.111221 
	C371.629211,217.318069 373.242828,190.307083 367.734100,163.051987 
	C357.538971,112.610291 331.848541,72.553177 288.069458,44.729523 
	C283.531372,41.845345 279.234772,39.008659 276.575867,34.013603 
	C274.770844,30.622581 271.591339,28.152388 268.219513,26.286125 
	C263.111572,23.458963 257.885742,20.910259 254.745819,15.588330 
	C253.783829,13.957846 252.159668,13.595890 250.383484,14.518913 
	C248.660889,15.414065 248.643616,16.912148 249.223236,18.388088 
	C251.065231,23.078371 252.009506,28.482355 258.772064,28.965712 
	C261.027740,29.126938 263.110565,30.623823 264.758575,32.369591 
	C266.350281,34.055748 266.787689,36.616749 268.942505,37.886162 
	C276.411560,42.286209 278.955963,49.064049 278.378632,57.373646 
	C278.237732,59.402000 278.320984,61.378029 280.293243,62.714390 
	C287.912140,67.876740 286.962067,75.438011 285.831238,82.982979 
	C285.589111,84.598358 284.917908,86.084717 285.026825,87.837662 
	C285.592468,96.938797 283.522491,106.162575 286.314667,115.166145 
	C286.360046,115.312469 286.340149,115.525795 286.263367,115.656555 
	C281.625397,123.554604 282.644287,131.742416 284.198273,140.302017 
	C285.520721,147.586014 280.235138,153.910522 279.388092,161.915359 
M121.743713,24.233562 
	C117.134720,26.778986 113.395805,30.333010 110.432137,34.612202 
	C107.422157,38.958271 103.556084,42.110447 99.052231,44.848568 
	C60.221371,68.455872 35.417755,102.903641 22.576530,146.017578 
	C15.440261,169.977325 13.508027,194.669968 16.483734,219.581833 
	C17.486973,227.980682 18.989561,236.332199 21.525383,244.450531 
	C22.486990,247.529083 24.076756,249.734940 27.656216,248.345917 
	C39.447266,243.770386 51.200253,239.095871 62.938343,234.385818 
	C64.513092,233.753937 65.988258,232.611206 65.398018,230.582764 
	C64.805588,228.546829 63.167793,228.319809 61.363739,228.908157 
	C57.621010,230.128754 54.865047,228.462311 52.542988,225.803680 
	C46.714592,219.130508 41.894611,211.751663 37.531776,204.060303 
	C36.398502,202.062393 36.140285,199.791656 36.665737,197.752243 
	C37.746357,193.558075 37.698139,189.716309 35.593586,185.781174 
	C34.533409,183.798828 35.458424,181.532196 36.579548,179.608017 
	C42.184620,169.988098 51.105465,169.588593 57.188675,178.670151 
	C57.559395,179.223618 57.915833,179.786911 58.296074,180.333694 
	C67.800308,194.001053 77.365166,207.626846 86.771706,221.361084 
	C89.104874,224.767670 91.582436,225.871994 95.573975,224.204407 
	C98.544342,222.963455 101.314362,221.702850 103.515450,219.268021 
	C109.454842,212.697937 115.879585,206.653107 123.447479,201.968735 
	C125.864159,200.472870 126.805412,198.538223 126.629425,195.743134 
	C126.445389,192.820145 124.525475,191.984192 122.192528,191.118408 
	C115.244507,188.539825 110.540459,183.545837 109.686745,176.219162 
	C108.396126,165.142838 106.661690,154.220993 103.352341,143.554688 
	C102.055695,139.375473 102.838722,135.231125 104.881836,131.474823 
	C106.267258,128.927719 106.098923,126.936356 104.444107,124.599365 
	C101.355865,120.238052 99.435265,115.230942 101.179047,110.016762 
	C102.901093,104.867638 104.607491,100.151886 101.038071,95.095970 
	C100.308273,94.062241 100.311424,92.015877 100.778694,90.727043 
	C102.069641,87.166290 101.244492,83.812393 100.326332,80.460640 
	C99.500572,77.446205 98.897911,73.972649 100.707458,71.726379 
	C106.867691,64.079369 108.137688,54.855003 110.890503,45.924515 
	C112.928780,39.312099 120.377777,35.705906 124.842072,30.214363 
	C126.071632,28.701885 128.414291,28.663376 130.443710,28.488581 
	C132.092957,28.346531 134.185410,28.109959 134.663681,26.343266 
	C135.797638,22.154528 138.231384,18.632477 140.448166,15.076474 
	C135.617325,11.874677 134.641571,11.854045 131.620026,16.250141 
	C129.214081,19.750635 126.896271,23.049318 121.743713,24.233562 
M144.273849,66.780891 
	C137.589813,77.374878 133.669205,88.616699 136.279404,101.350571 
	C138.096298,110.214355 137.656494,118.562752 131.139969,125.672417 
	C130.613892,126.246361 130.429703,127.167191 130.182129,127.956764 
	C129.346741,130.620895 129.664749,132.865128 132.411728,134.335785 
	C135.230026,135.844620 136.885529,134.655914 138.697342,132.384705 
	C148.428848,120.185852 163.088181,116.542450 175.979355,124.947174 
	C183.372711,129.767441 190.200119,132.913147 198.998856,132.163879 
	C201.495163,131.951309 203.308228,131.696518 205.105438,129.836731 
	C214.959106,119.639931 229.065063,118.163055 241.064026,125.815605 
	C244.073074,127.734673 246.388077,130.306488 248.723389,132.919846 
	C251.051315,135.524963 253.686874,135.173248 256.344574,133.396683 
	C259.314789,131.411270 257.932892,129.069962 256.779907,126.842377 
	C256.172424,125.668694 255.397705,124.540977 254.515182,123.556892 
	C249.268295,117.706169 248.718903,111.173325 250.100647,103.573051 
	C253.527420,84.724434 247.617706,68.748848 232.296356,57.235939 
	C216.703613,45.519093 198.693726,42.455166 179.679459,46.001400 
	C165.740829,48.601006 153.264832,54.121769 144.273849,66.780891 
M156.281570,227.209106 
	C160.440201,229.963364 165.158279,232.106613 168.286499,236.085724 
	C177.674210,248.026917 207.982635,250.335495 220.199783,238.603745 
	C226.444595,232.607040 233.192368,227.132278 239.406128,221.105438 
	C249.067200,211.734970 255.070786,200.463516 255.611221,186.758896 
	C255.761154,182.956635 257.862854,182.584457 260.914001,182.655151 
	C266.543091,182.785568 269.665680,180.623703 270.354919,175.227524 
	C271.761505,164.215195 272.401245,153.106094 275.671600,142.385818 
	C276.326111,140.240250 277.018860,137.251755 273.794434,136.592270 
	C270.477661,135.913895 268.640045,138.425751 267.634308,141.251663 
	C267.204529,142.459213 267.345581,143.884293 267.303741,145.212936 
	C267.157257,149.868271 267.262360,154.545013 266.830292,159.172424 
	C266.598785,161.652023 265.525360,164.380844 262.272980,164.110825 
	C259.029205,163.841553 258.652039,161.192062 258.650818,158.528000 
	C258.649078,154.694748 258.674561,150.860413 258.588684,147.028763 
	C258.553375,145.452515 258.944916,143.272797 256.487976,143.260086 
	C254.309418,143.248840 253.439865,144.888412 253.234543,146.969620 
	C253.022583,149.118164 252.767807,151.278091 252.307983,153.384171 
	C248.157257,172.394669 227.633667,181.164230 211.962585,170.513245 
	C202.862686,164.328461 199.602783,155.081192 199.844955,144.544907 
	C199.933441,140.695877 198.354004,139.473511 195.027802,139.188492 
	C190.181107,138.773163 188.941528,140.265320 188.793930,145.538879 
	C188.509827,155.689285 185.250854,164.839035 176.445633,170.468857 
	C167.127457,176.426651 157.014694,177.157791 147.181854,171.144241 
	C139.044647,166.167694 134.888718,158.754135 134.616623,149.195145 
	C134.554962,147.028793 134.779953,144.166534 131.897491,144.173172 
	C128.879593,144.180115 129.460358,147.204269 129.403137,149.220505 
	C129.299225,152.882919 129.427933,156.551971 129.461975,160.218231 
	C129.479843,162.140396 129.369400,163.992828 126.890900,164.341644 
	C124.580864,164.666763 122.483528,164.297989 121.349945,161.989151 
	C120.219688,159.687073 120.107788,157.222351 120.403191,154.677017 
	C120.866913,150.681381 120.785995,146.683167 119.719391,142.768524 
	C118.934311,139.887115 117.573074,136.806229 114.130882,137.786041 
	C110.920845,138.699753 111.251114,142.168915 112.225624,144.632889 
	C115.836601,153.762970 116.401131,163.395996 117.507469,172.966492 
	C117.877289,176.165726 119.194931,179.088821 122.070328,180.967789 
	C124.004372,182.231628 125.768936,182.682541 126.746040,179.814606 
	C127.441101,177.774506 127.988518,175.279068 130.881073,175.698700 
	C134.357712,176.203079 133.265762,179.238113 133.389404,181.334686 
	C134.468185,199.628799 140.418640,215.487381 156.281570,227.209106 
M124.427185,324.421509 
	C122.569931,325.315155 120.579735,325.398926 118.570312,325.410980 
	C116.197845,325.425201 114.518028,326.488190 113.334091,328.597626 
	C110.829887,333.059448 106.934845,335.613129 101.924660,336.541718 
	C98.984581,337.086639 96.028702,337.583984 93.130104,338.304565 
	C90.137642,339.048462 90.111176,340.785919 92.348122,342.425476 
	C94.756622,344.190796 97.391083,345.660248 99.985344,347.157623 
	C118.962151,358.110931 140.416260,362.306458 160.813858,369.382782 
	C162.560303,369.988678 164.403595,369.697906 166.228119,369.213043 
	C201.257782,359.903778 236.959946,353.748962 272.433899,346.514862 
	C277.950623,345.389862 283.823517,345.185547 288.939514,341.313385 
	C244.025330,331.341217 198.331787,325.730896 153.376770,313.208801 
	C154.109970,315.732300 154.497284,317.335388 155.040329,318.883850 
	C156.691910,323.593079 158.565323,328.232056 160.015915,333.000702 
	C160.634369,335.033813 161.656616,338.110657 157.834488,338.285980 
	C146.341766,338.813141 134.916656,337.441376 123.478737,336.619019 
	C121.402443,336.469727 119.692528,335.152832 119.905357,332.605103 
	C120.121559,330.016846 121.578705,328.670471 124.185402,328.772736 
	C128.174454,328.929169 132.158401,329.224976 136.147995,329.355042 
	C138.638565,329.436249 141.345169,330.568451 143.814529,328.159729 
	C140.689468,324.769897 137.282806,321.958313 133.389862,320.352844 
	C130.289795,319.074432 128.587433,323.412720 125.655945,324.022217 
	C125.495331,324.055664 125.345726,324.142151 124.427185,324.421509 
M117.342354,271.134521 
	C105.419662,264.098114 92.352898,259.494843 79.852165,253.693207 
	C76.497131,252.136124 72.454819,253.743423 70.725090,257.108185 
	C66.173759,265.961670 54.449741,266.973785 50.407551,276.214539 
	C50.242161,276.592621 49.585663,276.747864 49.170696,277.025940 
	C36.177647,285.731598 36.882008,282.660675 45.329067,295.614868 
	C53.008549,307.391907 61.949310,318.122284 72.438889,327.504517 
	C77.092300,331.666687 85.313202,332.162964 89.078262,328.715118 
	C88.455017,326.473694 86.376747,325.977142 84.649040,325.066772 
	C77.873589,321.496552 71.040573,318.030090 64.348869,314.309418 
	C61.977711,312.991028 59.569458,310.724915 61.070267,307.844666 
	C62.806549,304.512573 65.809174,306.576721 68.059853,307.650421 
	C76.625465,311.736786 85.082542,316.050018 93.621941,320.192383 
	C96.008072,321.349854 98.470825,322.464752 101.020226,323.138031 
	C103.601418,323.819702 106.225975,322.987793 107.566200,320.659882 
	C108.847435,318.434418 106.541931,317.092743 105.259338,315.672791 
	C98.826927,308.551453 90.062157,305.021851 81.897385,300.565094 
	C78.395973,298.653870 74.823265,296.835938 71.506348,294.638458 
	C69.588676,293.368011 67.619370,291.340363 69.332718,288.796631 
	C70.881119,286.497803 73.261749,287.572693 75.188278,288.558319 
	C80.228676,291.136993 85.060951,294.165405 90.227310,296.445526 
	C99.328644,300.462280 107.447281,305.822052 114.689293,312.601807 
	C116.015915,313.843750 117.572472,314.857574 119.095055,315.867981 
	C120.775635,316.983185 122.314583,316.440704 123.553970,315.074188 
	C124.915718,313.572754 124.042305,312.270325 122.902000,311.173828 
	C118.027519,306.486603 114.920670,300.523712 111.317650,294.945709 
	C108.869492,291.155640 105.798302,288.443024 101.745979,286.522369 
	C94.975945,283.313629 88.273590,279.948853 81.663414,276.423492 
	C79.510437,275.275269 76.964394,273.435547 78.397346,270.543549 
	C80.053581,267.200897 82.972763,268.769806 85.346512,269.903076 
	C90.451271,272.340118 95.293259,275.451050 100.577187,277.361145 
	C109.012299,280.410400 115.222710,285.604858 119.586754,293.375824 
	C121.696579,297.132751 123.949799,300.913269 127.157326,303.881897 
	C129.557068,306.102936 132.430603,307.869354 135.633743,305.499908 
	C138.940811,303.053589 137.394196,300.089020 135.678146,297.550049 
	C129.806839,288.863129 123.799530,280.268127 117.342354,271.134521 
M263.499573,314.266388 
	C241.643036,314.266388 219.786499,314.266388 197.929962,314.266388 
	C206.862442,315.881805 215.242950,319.317993 224.142883,320.742218 
	C246.937622,324.389984 269.829071,327.735626 292.332336,332.765747 
	C302.497406,335.037933 309.820068,334.462646 315.823029,325.627106 
	C317.278900,323.484253 319.776489,322.074738 321.628357,320.166290 
	C322.843109,318.914398 324.628601,317.913788 324.390289,314.271515 
	C304.481598,314.271515 284.490631,314.271515 263.499573,314.266388 
M246.555450,302.965454 
	C257.508148,265.191162 260.248444,225.849228 256.324158,218.759399 
	C255.142349,219.269012 255.438599,220.412033 255.255325,221.332184 
	C251.869461,238.330215 243.506302,252.591919 231.414597,264.820221 
	C224.581711,271.730286 224.562378,271.761566 228.380157,280.707428 
	C231.575073,288.193848 234.642990,295.747589 238.195877,303.063293 
	C240.423340,307.649841 243.153046,307.645691 246.555450,302.965454 
M217.091949,145.144226 
	C214.249756,142.669785 211.336426,144.183578 208.990173,145.633926 
	C206.722351,147.035812 207.498718,149.674026 208.134674,152.020081 
	C210.402710,160.386703 217.430176,166.930923 225.041031,167.592056 
	C232.929733,168.277344 240.550797,163.469223 243.975479,155.646317 
	C247.549301,147.482742 245.835953,139.515671 239.212067,133.496445 
	C232.195282,127.120193 217.933914,128.133148 213.149658,135.376907 
	C214.456909,136.451462 215.626953,135.432571 216.847351,135.157791 
	C223.908005,133.567917 230.373322,134.910233 236.133530,139.285751 
	C237.528488,140.345367 239.488998,141.579254 238.473938,143.695175 
	C237.475922,145.775574 235.412506,145.362961 233.661194,144.581833 
	C231.410858,143.578079 229.835968,143.907303 227.984436,145.795700 
	C224.660431,149.185867 220.961884,149.136322 217.091949,145.144226 
M133.465439,245.063324 
	C134.150909,250.330475 134.991272,255.584259 135.447495,260.871185 
	C135.636551,263.062103 136.143921,264.757568 138.061874,265.870148 
	C150.159592,272.887787 151.593079,283.158875 147.295670,296.165466 
	C145.959641,300.209106 146.656357,303.025482 150.109955,305.715332 
	C151.233932,294.985046 155.551895,285.797028 160.623032,277.114868 
	C163.005402,273.036102 163.330002,270.924500 159.720551,267.579681 
	C149.015503,257.659576 141.462982,245.648422 137.321091,231.536026 
	C136.529236,228.837967 136.191284,225.829224 134.028625,223.049942 
	C130.955811,230.403015 133.254333,237.314346 133.465439,245.063324 
M175.240585,145.679352 
	C173.813812,143.183899 172.211319,142.849808 170.201508,145.128357 
	C168.102463,147.508087 165.373627,149.409195 162.327957,147.787949 
	C158.862793,145.943390 155.537048,144.683365 151.584488,145.262421 
	C150.400253,145.435913 149.262772,144.879395 148.791641,143.607971 
	C148.258133,142.168182 148.834457,140.996185 149.898621,140.050171 
	C152.176865,138.024811 155.040085,137.057266 157.703781,135.707443 
	C160.154922,134.465332 163.274979,135.124527 165.551666,133.137970 
	C159.845566,126.846878 148.242783,130.908768 144.633865,136.673401 
	C137.734421,147.694016 143.434875,163.445343 155.913925,167.152710 
	C163.343079,169.359833 172.587524,165.877777 173.515121,160.121582 
	C174.251175,155.554169 175.670624,151.048584 175.240585,145.679352 
M237.782043,233.355408 
	C227.697189,242.555847 217.595169,251.709961 205.700653,258.648132 
	C202.867386,260.300781 200.396591,262.672668 198.012070,264.975677 
	C193.598480,269.238403 194.202042,272.088806 199.669373,274.821899 
	C201.904526,275.939240 203.803864,275.447723 205.817612,274.406219 
	C222.739349,265.654633 234.727905,252.276031 242.676620,235.119003 
	C243.345627,233.675003 244.316025,232.135513 242.961639,230.470795 
	C240.747192,230.065002 239.796875,232.007477 237.782043,233.355408 
M184.780273,289.538635 
	C184.167374,287.644867 183.794113,285.628296 182.898056,283.879608 
	C179.807373,277.848022 171.467361,277.397034 167.821259,282.858368 
	C163.885483,288.753601 161.860367,295.459442 159.341476,301.962738 
	C158.299026,304.654144 159.358902,306.422729 162.083878,306.476105 
	C169.900375,306.629181 177.724152,306.572906 185.541763,306.424591 
	C188.533936,306.367828 189.636963,304.674866 188.639389,301.707489 
	C187.367905,297.925171 186.199173,294.108307 184.780273,289.538635 
M223.265533,305.930145 
	C227.252289,305.577026 228.634171,303.406799 227.079315,299.803314 
	C224.450287,293.710388 221.599960,287.712128 218.797668,281.695038 
	C217.304260,278.488403 215.069290,278.417877 212.310257,280.183502 
	C210.283752,281.480347 208.583649,283.038147 207.785416,285.311584 
	C205.863235,290.786163 204.104202,296.318054 202.181961,301.792603 
	C201.034653,305.060150 202.177094,306.592529 205.523849,306.547180 
	C211.161301,306.470825 216.819870,307.031494 223.265533,305.930145 
M79.389389,224.059738 
	C77.794067,221.928864 76.219246,219.782211 74.596184,217.672684 
	C73.523300,216.278244 72.325050,215.105240 70.420059,216.415466 
	C68.590057,217.674133 68.935570,219.218216 69.952255,220.753677 
	C75.828964,229.629089 81.565239,238.604935 87.710869,247.290787 
	C89.832474,250.289307 93.088562,252.332321 98.420433,252.175873 
	C92.621552,241.802170 85.970909,233.379639 79.389389,224.059738 
M222.712997,365.387726 
	C217.243500,366.677277 211.563324,367.314362 206.707077,370.681213 
	C225.338272,372.389557 242.255920,365.968140 259.222778,359.658936 
	C247.009369,359.545044 235.355347,362.899902 222.712997,365.387726 
M132.826614,271.761597 
	C131.165756,271.317688 129.648346,269.803131 127.276123,271.313141 
	C129.789383,276.902893 133.678558,281.548523 137.421326,286.279053 
	C138.036514,287.056580 138.904541,287.701904 140.006454,287.310364 
	C141.291931,286.853607 141.520447,285.731262 141.606262,284.510834 
	C142.043427,278.292389 138.386276,274.780457 132.826614,271.761597 
M68.816284,209.207077 
	C66.846466,206.126678 64.913078,203.022095 62.891537,199.976028 
	C61.873524,198.442062 60.610691,197.583725 58.716652,198.876556 
	C57.015438,200.037781 56.597775,201.558228 57.652306,203.164505 
	C59.657444,206.218750 61.530670,209.497650 64.129379,211.981537 
	C66.299255,214.055527 68.863876,213.888229 68.816284,209.207077 
M54.334305,188.765747 
	C53.422157,186.580322 52.021206,184.716263 50.336727,183.098175 
	C48.939720,181.756241 47.113213,181.403183 46.103912,183.278732 
	C44.119442,186.966385 47.012642,189.268845 49.253666,191.319748 
	C51.723133,193.579712 53.429153,192.062042 54.334305,188.765747 
M52.869167,212.652756 
	C53.721474,209.040207 50.950104,208.190399 48.943459,206.748367 
	C48.798462,209.628387 50.116173,211.492416 52.869167,212.652756 
M144.461700,317.683685 
	C146.551498,316.070801 145.461075,314.581329 144.122879,313.337372 
	C143.344589,312.613861 142.003296,312.830627 141.580139,313.731476 
	C140.514557,316.000092 142.349350,316.822906 144.461700,317.683685 
z"/>
<path fill="#000000" opacity="1.000000" stroke="none" 
	d="
M318.602753,187.587433 
	C325.044403,186.753036 331.016388,187.820938 336.994965,187.655579 
	C339.455688,187.587524 341.268921,188.421921 341.298706,191.280045 
	C341.330597,194.341064 339.431091,195.309448 336.767212,195.315521 
	C326.954987,195.337906 317.142700,195.335434 307.330414,195.330215 
	C304.621307,195.328766 302.760223,194.205078 302.757202,191.269516 
	C302.754272,188.415115 304.800140,187.717514 307.165100,187.672180 
	C310.822937,187.602051 314.482452,187.620224 318.602753,187.587433 
z"/>
<path fill="#000000" opacity="1.000000" stroke="none" 
	d="
M303.606262,156.249329 
	C312.932098,153.638138 322.044922,154.738266 331.130402,155.425140 
	C332.894562,155.558502 334.125885,156.868408 334.202728,158.829575 
	C334.289948,161.054504 332.943176,162.409698 330.978210,162.629837 
	C322.523987,163.577026 314.024994,163.936401 305.617615,162.388596 
	C302.397522,161.795792 301.085663,159.657288 303.606262,156.249329 
z"/>
<path fill="#000000" opacity="1.000000" stroke="none" 
	d="
M48.627163,160.370743 
	C47.174702,156.505310 48.961689,154.799286 52.146965,154.743866 
	C61.596966,154.579468 71.051598,154.669418 80.504379,154.685608 
	C82.829254,154.689575 84.325264,155.835938 84.501602,158.211441 
	C84.653587,160.258759 83.712898,161.988205 81.629723,162.258163 
	C71.064819,163.627228 60.506390,163.313400 49.988525,161.674957 
	C49.575333,161.610596 49.239418,161.050140 48.627163,160.370743 
z"/>
<path fill="#000000" opacity="1.000000" stroke="none" 
	d="
M197.003326,211.228607 
	C188.188675,211.299286 179.873947,211.362213 171.559204,211.364853 
	C169.416229,211.365524 166.894135,211.618591 166.705673,208.476334 
	C166.514343,205.286774 168.741028,204.907745 171.309052,204.604813 
	C186.466415,202.816864 201.606598,201.859497 216.781876,204.437210 
	C219.253723,204.857071 221.792679,205.359787 221.470535,208.389954 
	C221.140793,211.491730 218.262604,211.313904 215.960205,211.283585 
	C209.807724,211.202576 203.660294,210.434280 197.003326,211.228607 
z"/>
<path fill="#000000" opacity="1.000000" stroke="none" 
	d="
M180.734543,190.395172 
	C177.829742,187.505051 174.152191,185.763382 173.691238,181.332657 
	C173.313538,177.701996 174.158676,175.765991 178.276474,176.807388 
	C181.822830,177.704254 185.396393,178.436035 188.516541,180.541855 
	C192.782745,183.421204 197.081879,183.772171 201.508087,180.685654 
	C203.724670,179.139984 206.276077,178.194305 209.054825,178.910202 
	C210.666382,179.325424 212.318970,179.954163 212.506927,182.002716 
	C212.684631,183.939346 211.562500,185.297195 209.936295,185.872086 
	C202.291534,188.574554 195.066101,192.434418 186.933624,193.829453 
	C183.797394,194.367432 182.249237,193.060852 180.734543,190.395172 
z"/>
<path fill="#000000" opacity="1.000000" stroke="none" 
	d="
M167.684265,284.730133 
	C171.679840,281.157104 174.766495,283.368622 177.389618,285.994873 
	C178.992798,287.600037 178.867813,290.091827 177.643448,292.030670 
	C176.267456,294.209564 174.003250,294.324738 171.905426,293.252228 
	C168.641296,291.583405 166.040634,289.371033 167.684265,284.730133 
z"/>
</svg>