<svg version="1.1" id="Layer_1" xmlns="http://www.w3.org/2000/svg" xmlns:xlink="http://www.w3.org/1999/xlink" x="0px" y="0px"
	 width="100%" viewBox="0 0 1024 1024" enable-background="new 0 0 1024 1024" xml:space="preserve">
<path fill="#000000" opacity="1.000000" stroke="none" 
	d="
M309.796509,828.263062 
	C282.839417,811.675842 257.758057,793.213806 236.606628,770.024475 
	C205.490997,735.910889 179.659592,698.139832 162.447235,655.134644 
	C145.746185,613.406982 135.853256,570.106140 135.303833,524.835205 
	C134.753021,479.448425 140.977417,435.073822 155.541519,392.188660 
	C169.974030,349.691040 192.432541,311.467896 220.631699,276.457977 
	C240.591278,251.677689 263.939545,230.739624 289.830597,212.636108 
	C315.267090,194.850418 342.240021,179.610092 370.981567,167.664551 
	C376.621368,165.320526 382.012543,162.306183 389.471008,161.461044 
	C385.032990,167.997086 380.765411,173.616150 377.603729,179.889282 
	C377.360931,180.371002 376.516388,180.749924 375.910919,180.818634 
	C364.610870,182.101013 355.916565,188.647354 350.018738,197.253967 
	C338.766663,213.673798 322.459747,223.340286 306.529297,233.891571 
	C255.490494,267.696442 219.525208,314.199829 193.365143,368.924896 
	C177.689697,401.716888 168.903046,436.369507 164.120575,472.267731 
	C160.179825,501.847870 160.117416,531.393921 163.436707,560.958801 
	C165.518936,579.505066 169.287811,597.756897 175.199722,615.510498 
	C175.562103,616.598816 176.055984,617.643250 176.935410,619.807617 
	C205.244598,607.286316 234.071075,596.538513 262.664673,585.477051 
	C261.729462,581.572144 259.766754,579.653015 258.431183,577.382141 
	C256.988495,574.929138 255.302780,574.587280 252.621719,575.881775 
	C243.579514,580.247864 239.642227,579.495300 233.013428,571.735657 
	C222.158737,559.029236 213.085312,545.035828 204.633286,530.665955 
	C200.580551,523.775635 200.407181,516.696228 206.049988,510.301453 
	C207.769211,508.353149 208.002441,506.552582 206.245041,504.578003 
	C206.024628,504.330383 205.876801,504.017761 205.654404,503.772339 
	C200.152679,497.700653 197.293213,491.098907 202.593414,483.538757 
	C208.678360,474.859222 216.376953,468.468719 227.726028,468.863159 
	C231.787338,469.004333 234.640259,471.710876 236.930374,475.041718 
	C252.977600,498.381531 269.069458,521.690735 285.170837,544.993286 
	C291.421539,554.039429 297.712433,563.058228 304.035614,572.053894 
	C305.354919,573.930786 306.720551,575.834961 309.519562,577.190857 
	C308.127655,572.274353 310.970123,570.618286 314.626495,569.903931 
	C323.087128,568.250732 329.006531,563.237183 334.668976,556.910645 
	C346.031189,544.215759 358.674225,532.824402 373.865936,524.692017 
	C376.393097,523.339172 377.625427,521.885254 376.835693,518.807922 
	C376.098328,515.934631 375.972137,512.901428 375.620544,509.933441 
	C375.401031,508.080566 374.525787,506.776031 372.661224,506.369080 
	C349.074890,501.221497 341.907776,483.773987 341.041504,462.613831 
	C340.543976,450.460388 338.626923,438.849518 334.745056,427.411438 
	C332.769073,421.589142 331.184296,415.636627 330.655792,409.441437 
	C329.851379,400.011475 332.372162,391.646027 338.370239,384.628632 
	C337.977631,382.290100 336.334900,381.217865 335.221008,379.826660 
	C324.687897,366.671692 323.280884,352.803589 331.474762,338.049500 
	C333.269592,334.817688 333.175598,332.697815 331.086792,329.639496 
	C326.356567,322.713715 322.855835,315.349640 328.273712,306.998688 
	C329.317719,305.389526 328.217072,303.776703 327.794067,302.200623 
	C325.277649,292.824280 322.965424,283.481842 326.334747,273.753326 
	C328.507050,267.481018 332.162292,262.478516 338.024750,259.408783 
	C341.341156,257.672180 342.412689,255.576981 341.774689,251.838181 
	C339.982056,241.333313 340.631653,230.851944 347.484833,222.313980 
	C354.479095,213.600250 363.462860,206.668396 370.239471,197.559036 
	C374.100891,192.368362 381.151886,192.330795 387.356323,192.148346 
	C390.599670,192.052979 392.523621,190.901016 392.562988,187.568283 
	C392.732819,173.194626 411.367096,160.195114 424.707336,159.663544 
	C433.440521,159.315567 442.197906,156.098099 449.118195,150.793198 
	C461.117798,141.594757 481.586578,140.432175 494.288147,149.295074 
	C499.905457,153.214767 504.031616,152.479065 509.083557,149.270905 
	C518.606628,143.223404 529.215332,142.595779 539.933105,144.333740 
	C549.512695,145.887161 556.837952,151.068085 561.187378,160.015213 
	C561.610352,160.885300 562.249390,161.650345 562.924500,162.670120 
	C571.937012,159.048737 581.115662,158.697174 590.386963,160.734146 
	C603.349976,163.582199 614.550354,175.342255 616.230774,188.108490 
	C616.615051,191.027634 617.907288,191.618073 620.411316,191.722931 
	C626.508301,191.978210 632.187744,193.699356 637.397278,196.954163 
	C640.014343,198.589279 642.530457,200.574829 643.388184,203.449707 
	C644.801208,208.185760 648.244873,210.381638 652.073547,212.908478 
	C666.284119,222.287277 669.042053,236.305939 666.860535,252.014175 
	C666.554199,254.219498 665.860779,256.235413 668.523682,257.559418 
	C682.702759,264.609161 684.819397,277.032684 683.215637,291.011169 
	C682.952148,293.307922 682.455383,295.661041 681.579041,297.787231 
	C679.679138,302.396484 678.984619,306.447327 681.805786,311.341003 
	C684.533569,316.072693 681.824158,321.302521 679.290283,325.511993 
	C675.985107,331.002930 676.500061,335.369781 679.448364,341.026123 
	C685.701599,353.023163 683.654663,365.087585 676.328613,376.035858 
	C672.901672,381.157135 671.439026,384.940430 675.330688,390.989594 
	C680.788757,399.473694 680.344360,409.407471 677.836548,419.074066 
	C677.293884,421.165985 676.790100,423.322906 675.855164,425.249237 
	C669.561951,438.214813 669.030518,452.207153 668.354919,466.186096 
	C667.735718,478.997253 663.652161,490.248779 653.915710,499.116608 
	C650.878540,501.882812 647.540894,504.026367 643.687866,505.149017 
	C640.034180,506.213623 638.521240,508.099274 637.944275,512.045044 
	C636.520447,521.783142 636.186279,521.793945 644.468933,526.721252 
	C659.418640,535.614807 672.167480,546.978394 682.395813,561.020325 
	C686.133728,566.151733 690.648193,569.370300 696.813843,570.857422 
	C710.171814,574.079529 721.935852,581.415894 734.880432,585.858154 
	C763.698669,595.747925 792.929138,604.506042 820.966553,616.609375 
	C830.538208,620.741272 830.838867,620.579590 833.470642,610.422180 
	C840.077515,584.923645 844.562744,559.115356 845.958313,532.717957 
	C848.613892,482.489899 840.394348,434.031799 821.882690,387.522644 
	C801.572144,336.493591 771.659790,291.747314 730.240173,255.178528 
	C715.590942,242.244919 699.933533,230.636520 682.867554,221.061966 
	C675.565002,216.965027 669.831238,211.826233 665.709656,204.256088 
	C660.723022,195.097000 652.481323,188.506760 642.963562,184.706116 
	C632.482605,180.520874 626.495056,172.471878 620.316162,163.463943 
	C623.176636,163.230301 625.263306,164.361069 627.373840,165.100739 
	C667.711121,179.237274 704.423096,199.985077 737.593140,226.808777 
	C762.997986,247.352997 784.479980,271.645325 803.421753,298.276123 
	C838.057251,346.971252 859.013855,401.058228 868.574585,459.874054 
	C873.223267,488.471954 874.506592,517.151917 872.152161,545.959106 
	C870.154053,570.405701 865.154236,594.300293 858.463501,617.942993 
	C843.426575,671.078308 817.648010,718.358032 782.138306,760.417358 
	C747.819824,801.065796 705.273010,830.434265 656.505310,851.178345 
	C630.208252,862.364136 603.258118,871.383850 575.058411,876.325562 
	C540.073303,882.456482 505.008026,883.231140 469.585693,879.777649 
	C431.772247,876.091064 395.546661,866.811218 360.295288,853.161316 
	C342.855835,846.408447 326.328339,837.723511 309.796509,828.263062 
M415.298157,378.707214 
	C425.022766,373.180634 435.159088,369.383148 446.663239,370.661346 
	C462.505737,372.421600 476.364288,378.005280 486.139923,391.221924 
	C487.961823,393.685120 489.515259,394.179688 492.349731,393.399994 
	C500.665100,391.112671 509.111603,390.607391 517.450928,393.238312 
	C521.287415,394.448639 523.586792,393.360046 525.720520,390.032623 
	C530.473511,382.620575 537.419800,377.828247 545.613647,374.841125 
	C569.464844,366.146088 592.038513,372.173401 608.836487,392.374084 
	C617.428650,402.706726 615.569763,400.635834 626.261230,394.590729 
	C629.418579,392.805511 630.023010,390.511566 629.007324,387.065948 
	C627.000488,380.257751 622.260620,375.273132 618.225281,369.801514 
	C612.841187,362.501221 610.317444,354.670837 612.345093,345.437073 
	C614.918945,333.716248 617.146240,321.734161 615.321167,309.785217 
	C609.761230,273.383881 589.646057,247.917343 555.654480,233.878387 
	C532.602234,224.357529 508.637268,221.078140 483.737183,224.997696 
	C464.420715,228.038345 445.712189,232.787262 429.982178,244.844635 
	C399.756622,268.013123 387.936737,298.937286 393.912689,336.391144 
	C396.300964,351.359467 396.160004,365.262756 384.883057,376.974854 
	C383.975739,377.917206 383.340820,379.149078 382.693237,380.309998 
	C377.588745,389.460480 379.351410,394.476105 388.839966,398.632904 
	C392.652740,400.303223 395.411499,400.107941 397.458130,395.988037 
	C401.224243,388.406769 407.446655,383.205414 415.298157,378.707214 
M423.689880,568.806519 
	C428.038361,572.701660 432.519592,576.414368 437.668365,579.242676 
	C444.582397,583.040710 450.753967,587.794983 456.144073,593.571716 
	C463.277679,601.216980 472.044189,606.025146 482.127228,608.667664 
	C487.635925,610.111328 493.236542,610.852905 498.863098,611.393921 
	C520.035522,613.429688 540.179016,611.298462 557.074768,596.523193 
	C571.495178,583.912537 585.958191,571.292114 598.945251,557.217407 
	C615.063477,539.749390 624.034424,518.987549 624.689453,494.949646 
	C624.852051,488.981750 626.464966,488.007050 633.292786,489.588104 
	C641.455566,491.478271 647.613831,488.382111 650.908020,480.668457 
	C651.559753,479.142426 652.218628,477.569336 652.518311,475.952026 
	C653.639160,469.903625 654.676086,463.832428 654.672913,457.650726 
	C654.666931,446.067749 656.375305,434.809265 660.360229,423.869019 
	C662.525635,417.923920 663.865173,411.710876 663.813782,405.315216 
	C663.773682,400.317749 659.947937,397.527191 655.437622,399.574158 
	C650.452209,401.836761 646.668518,405.102478 646.019348,411.372040 
	C645.001892,421.198151 645.378479,431.003357 645.426636,440.820404 
	C645.444275,444.419006 644.889648,447.759399 642.756165,450.750885 
	C640.796814,453.498138 637.983093,453.576843 635.115295,453.152954 
	C632.259521,452.730835 631.020264,450.769470 630.531982,447.995880 
	C629.715698,443.359131 629.847290,438.706635 629.860474,434.043762 
	C629.879700,427.214508 629.896179,420.384583 629.810669,413.556213 
	C629.791077,411.987640 630.023926,409.961029 627.589172,409.776978 
	C625.280823,409.602539 618.168518,416.407593 618.387451,418.846863 
	C619.562317,431.935303 614.564819,442.979187 607.114136,453.168396 
	C586.451233,481.426300 552.379272,480.830200 531.115845,457.190460 
	C519.783081,444.591248 515.674072,429.551849 517.574585,412.819000 
	C517.952026,409.496246 517.554321,406.618134 513.773499,405.872192 
	C509.410919,405.011444 505.094025,403.777161 500.480042,404.970764 
	C494.213287,406.591919 493.955566,407.002899 494.500885,413.470825 
	C496.105042,432.497467 489.536896,448.695251 475.479462,461.175232 
	C457.386047,477.238342 434.929138,478.792908 414.601593,465.876160 
	C398.761292,455.810760 391.428284,440.728363 391.081451,422.079102 
	C390.956635,415.366486 388.322815,412.543823 381.466095,411.311768 
	C379.896484,412.948914 380.270874,415.035278 380.281189,416.988556 
	C380.331238,426.477020 380.222687,435.963806 381.003174,445.443909 
	C381.309601,449.165985 380.863525,452.891998 375.948944,453.830902 
	C371.355225,454.708527 367.281311,452.767883 365.299622,448.398499 
	C363.669617,444.804535 363.514008,440.969513 363.747528,437.123383 
	C364.202728,429.626343 364.046387,422.138214 363.679321,414.645050 
	C363.400024,408.943390 361.281860,404.296387 356.183838,401.365631 
	C353.726562,399.952972 351.103394,398.278625 348.285065,400.244781 
	C345.497498,402.189423 345.222717,405.313568 345.610992,408.360565 
	C346.284241,413.644165 347.416412,418.812775 349.433075,423.808868 
	C351.989044,430.141174 353.634888,436.712219 354.512390,443.547150 
	C355.866547,454.094330 355.912903,464.784943 358.243866,475.228058 
	C359.707916,481.787231 363.517639,486.280579 369.436127,489.023987 
	C373.765625,491.030823 375.904327,489.707336 376.828156,485.125336 
	C377.318359,482.694000 378.037781,480.289337 378.877594,477.953125 
	C379.817780,475.337677 382.180878,475.572052 384.360931,475.610138 
	C386.818359,475.653046 387.223358,477.295319 387.413116,479.309387 
	C387.958557,485.098572 388.802399,490.864410 389.199005,496.661987 
	C391.138794,525.019348 402.064423,549.074829 423.689880,568.806519 
M557.826416,768.853882 
	C531.471802,764.167297 505.184631,759.165527 479.121765,753.007751 
	C463.747253,749.375183 448.312988,746.014221 433.080841,741.784546 
	C428.680023,740.562561 425.913910,738.509888 426.002533,733.612610 
	C426.023224,732.469299 425.943726,731.152466 425.407837,730.197449 
	C420.119476,720.772949 422.465729,712.072388 426.840485,702.948853 
	C432.364410,691.428711 435.598267,678.799255 443.328644,668.342773 
	C448.733093,661.032349 448.947693,661.020874 442.103241,654.760132 
	C415.641266,630.554993 399.195007,600.801392 392.190765,565.678467 
	C391.269379,561.058044 391.293427,556.120911 388.602814,551.183472 
	C388.052216,553.093384 387.484985,554.309998 387.371735,555.567505 
	C385.889404,572.028687 385.775391,588.488708 387.840088,604.912170 
	C389.291107,616.454163 391.963562,627.970886 392.018982,639.508911 
	C392.049286,645.819031 394.551300,648.273987 398.886169,650.788330 
	C399.750427,651.289612 400.600098,651.817322 401.442932,652.354126 
	C422.926270,666.036621 422.230774,690.090698 414.028137,709.173096 
	C412.430481,712.889832 411.746277,715.345581 413.882080,718.580261 
	C426.238098,737.293762 432.274414,758.743469 439.966339,779.450256 
	C442.983093,787.571411 441.438782,789.282593 432.725952,788.979492 
	C407.944427,788.117371 383.168243,787.103577 358.389252,786.167786 
	C356.024872,786.078491 353.763641,785.581177 351.588104,784.699707 
	C349.805969,783.977539 348.406586,782.852966 348.162018,780.774475 
	C347.898102,778.531555 347.592529,776.174438 344.570282,776.411133 
	C341.904144,776.619873 339.049957,777.037170 338.456421,780.419678 
	C337.900024,783.590393 335.749512,784.732544 332.966949,785.394226 
	C330.020874,786.094849 327.001343,785.955017 324.046570,786.339539 
	C315.880768,787.402222 307.754211,788.766235 298.606903,790.164795 
	C312.815063,799.653503 326.375214,808.010742 340.903290,814.705750 
	C374.309631,830.100586 410.142853,838.378906 444.795990,850.118652 
	C446.367767,850.651123 447.683533,850.283569 449.131226,849.786987 
	C459.844604,846.112366 470.775482,843.114075 481.816254,840.709900 
	C511.550751,834.234863 541.344238,828.023865 571.159058,821.926331 
	C604.891785,815.027649 638.681030,808.405457 672.427551,801.573547 
	C680.447815,799.949951 688.534302,798.494995 697.471375,795.347473 
	C694.409790,794.420349 692.552185,793.749878 690.643066,793.296387 
	C670.887634,788.603943 650.799561,785.648132 630.854431,781.951721 
	C606.821289,777.497559 582.734009,773.335815 557.826416,768.853882 
M289.241913,775.080505 
	C296.334015,775.850159 303.381500,776.428467 309.481964,770.685242 
	C307.574982,768.666199 305.486816,768.035889 303.588745,767.074768 
	C287.391510,758.872986 271.058563,750.929688 255.337906,741.816406 
	C252.988785,740.454712 250.914459,738.814880 249.648651,736.359070 
	C248.340790,733.821716 248.089386,731.179993 249.847458,728.798828 
	C251.655457,726.350037 254.208359,726.774597 256.677063,727.621399 
	C258.248169,728.160278 259.813263,728.759521 261.299835,729.495667 
	C278.163757,737.847290 295.008759,746.237183 311.866669,754.601013 
	C316.195038,756.748535 320.567810,758.756653 325.285645,759.986389 
	C330.626068,761.378296 335.045258,759.792542 339.196716,756.491638 
	C341.876740,754.360718 342.198822,752.317810 339.721741,749.897705 
	C333.421906,743.742798 327.660645,737.043457 319.941284,732.420959 
	C305.773773,723.937317 290.962158,716.668396 276.436127,708.861511 
	C273.356323,707.206299 270.166412,705.693604 267.682251,703.146362 
	C264.946228,700.340942 263.049805,696.955383 265.303589,693.281555 
	C267.792633,689.224121 271.527710,691.071045 274.626312,692.664062 
	C304.904297,708.230347 336.353180,721.908203 361.253021,746.200867 
	C364.002045,748.882935 369.133423,747.534851 372.193665,743.723938 
	C375.022095,740.201721 371.953949,738.593994 369.852722,736.945679 
	C365.593414,733.604614 362.173279,729.577515 359.237030,725.083191 
	C354.772430,718.249634 350.028473,711.580444 345.903961,704.547791 
	C341.766235,697.492554 336.143585,692.580078 328.680206,689.290466 
	C315.415649,683.443970 302.553558,676.752869 289.832092,669.800659 
	C287.473206,668.511536 285.250916,667.060608 283.612122,664.877625 
	C281.880554,662.571106 281.163147,660.161987 282.907440,657.501770 
	C284.604156,654.914124 287.118713,654.144592 289.882294,654.904846 
	C292.259705,655.558899 294.648956,656.536011 296.726166,657.853882 
	C307.195435,664.496216 318.443787,669.603027 329.951508,673.979492 
	C342.526306,678.761719 351.864441,686.755005 358.775146,698.210266 
	C363.755829,706.466125 368.992828,714.611206 375.293884,722.000244 
	C378.419617,725.665710 382.324219,727.545959 386.982452,727.951111 
	C395.029633,728.651123 399.491608,722.363831 396.175476,714.959717 
	C394.127411,710.386963 391.356476,706.227539 388.486572,702.116028 
	C380.477905,690.642395 372.325562,679.254578 364.756348,667.494019 
	C360.043732,660.171875 354.121552,654.845520 346.012238,651.762756 
	C327.465607,644.712219 309.473511,636.413452 291.788910,627.432800 
	C280.098694,621.496155 270.266388,624.466675 265.065826,636.392334 
	C262.303558,642.726624 258.392822,646.356812 251.680756,647.434570 
	C243.660599,648.722351 238.711731,653.888977 235.738724,661.083923 
	C234.325821,664.503296 232.034393,666.814819 228.950394,668.745850 
	C220.807129,673.844543 212.796722,679.155457 204.899490,684.274292 
	C205.066360,686.642212 206.190948,688.137817 207.193146,689.648499 
	C212.993713,698.392212 218.804077,707.129761 224.675369,715.826050 
	C237.229980,734.421387 252.186264,750.941101 268.332336,766.453125 
	C273.985168,771.884094 280.240662,775.504700 289.241913,775.080505 
M635.926697,767.354614 
	C663.095276,773.028809 690.879272,775.551086 717.640137,783.304016 
	C719.792786,783.927734 721.492554,783.553406 723.039307,781.883484 
	C733.904663,770.152710 745.674194,759.341248 757.217102,748.298218 
	C758.714905,746.865295 760.541321,745.395813 759.611267,742.181274 
	C673.760925,743.159302 587.811646,740.306335 501.749359,742.739929 
	C524.389160,744.886597 545.744812,752.940247 568.164673,756.079224 
	C590.548035,759.213135 612.781616,763.417236 635.926697,767.354614 
M587.942871,717.615784 
	C589.182922,720.158081 590.312378,722.762146 591.687378,725.229248 
	C594.139771,729.629089 598.524048,727.397644 602.038574,727.908447 
	C604.746521,728.302124 605.535828,725.895081 606.059570,723.690308 
	C609.630493,708.658447 614.032104,693.843201 617.262573,678.713928 
	C625.523193,640.026978 630.224792,601.028931 628.708862,561.402283 
	C628.557922,557.456177 628.280212,553.569885 626.691101,549.791321 
	C624.525879,550.353699 624.519775,551.876526 624.309265,553.358704 
	C623.163147,561.428955 621.235168,569.325378 619.225037,577.221680 
	C614.202454,596.951721 604.461914,614.224487 591.857178,629.949707 
	C583.536987,640.329590 575.096802,650.669312 564.215881,658.613098 
	C561.916504,660.291809 561.574219,662.021606 563.419434,664.452515 
	C567.678467,670.063416 570.434814,676.491516 573.121216,682.968872 
	C577.837769,694.341125 582.759094,705.628479 587.942871,717.615784 
M594.273865,395.221405 
	C586.665039,387.839813 577.577942,384.993896 567.004822,385.305756 
	C541.494141,386.058258 526.377136,404.337646 531.414246,428.833984 
	C535.890686,450.603638 557.116089,464.969482 576.857361,459.922760 
	C602.077515,453.475372 617.348389,417.983002 594.273865,395.221405 
M474.796143,424.561157 
	C473.263306,417.234833 467.420685,413.745270 461.842407,409.095184 
	C459.916229,416.119843 457.372650,421.530945 449.873413,422.327179 
	C442.541412,423.105682 437.664825,420.223236 435.758270,412.845642 
	C434.604675,413.307373 433.711884,413.373657 433.450623,413.814362 
	C430.868103,418.170105 426.815308,417.483063 422.854187,416.962250 
	C420.647644,416.672150 418.521545,415.949036 417.857910,413.480072 
	C417.261230,411.260254 418.524811,409.632294 420.065399,408.259521 
	C421.180420,407.265961 422.347015,406.299438 423.605896,405.503052 
	C433.092896,399.501221 443.188324,395.644440 454.694275,396.763489 
	C457.145020,397.001831 459.672852,396.763885 460.010498,393.664948 
	C460.340607,390.634735 457.619720,390.379547 455.611267,389.955231 
	C450.572266,388.890747 445.495819,387.988586 440.413849,387.145172 
	C425.002899,384.587585 411.913300,392.260681 406.380798,406.819946 
	C404.068237,412.905548 403.856232,419.136810 404.182892,425.492218 
	C404.951447,440.445343 416.462036,455.638885 430.899017,459.490234 
	C452.893677,465.357697 468.004211,454.562286 476.617981,433.721863 
	C477.953918,430.489624 478.103149,427.635498 474.796143,424.561157 
M532.498840,663.970520 
	C574.306213,642.473145 603.562134,592.319946 603.198364,574.462341 
	C598.682373,578.316772 594.447510,581.687866 590.485474,585.353821 
	C570.440979,603.900208 550.047546,621.951416 526.348938,635.906128 
	C519.919312,639.692078 514.351501,644.875610 509.446381,650.594604 
	C505.038513,655.733826 505.307343,658.508911 510.337799,662.779602 
	C518.447754,669.664673 521.469055,669.882996 532.498840,663.970520 
M474.927979,728.271179 
	C481.082214,728.057312 487.236450,727.843689 493.390686,727.629456 
	C497.504425,727.486267 498.684021,725.331116 497.344391,721.650940 
	C496.264313,718.683777 494.845154,715.833740 493.866486,712.837036 
	C490.771423,703.360046 487.791412,693.845154 484.812744,684.330566 
	C483.801208,681.099487 481.784729,678.798889 478.712433,677.482605 
	C473.965820,675.449036 469.068634,673.853821 464.047150,672.627502 
	C461.609680,672.032288 459.798462,672.734131 458.555389,674.896851 
	C454.257782,682.374023 448.774231,689.146667 445.884033,697.464050 
	C443.046936,705.628723 439.913300,713.702393 436.574280,721.675537 
	C434.880402,725.720398 435.629974,727.348267 440.093018,727.881348 
	C451.392670,729.231140 462.692780,728.584351 474.927979,728.271179 
M572.024170,726.227539 
	C574.360474,724.759766 572.908325,722.935913 572.310486,721.390015 
	C570.270325,716.115173 568.244934,710.820679 565.873596,705.690979 
	C561.337402,695.877869 556.626160,686.143921 551.841064,676.449402 
	C550.962097,674.668579 549.838684,671.648682 547.274780,672.958801 
	C541.134949,676.096252 534.239258,678.618774 531.682678,686.078735 
	C527.477600,698.348816 523.377441,710.655273 519.097900,722.899170 
	C517.892517,726.347656 519.183960,727.591309 522.429993,727.602844 
	C538.729675,727.660645 555.031982,727.809509 572.024170,726.227539 
M289.756226,598.770142 
	C292.793549,603.349487 295.728821,608.000549 298.889709,612.492920 
	C305.140747,621.377319 314.892242,624.366211 324.572296,627.407776 
	C324.759552,627.466553 325.090515,627.067932 325.625763,626.692200 
	C325.623077,624.301758 323.890564,622.595947 322.568420,620.786987 
	C320.212646,617.563660 317.502411,614.591003 315.252045,611.300415 
	C302.185181,592.192932 288.695343,573.388428 274.916870,554.791138 
	C272.123840,551.021240 269.420807,551.258362 264.324066,555.001770 
	C260.672791,557.683472 263.704102,559.636169 264.981781,561.628906 
	C272.884521,573.953918 282.472809,585.154297 289.756226,598.770142 
M641.385498,828.057129 
	C642.656250,827.120728 644.450317,826.650146 644.578186,823.927429 
	C600.670654,831.726379 557.238281,840.548035 512.976868,851.678528 
	C517.154907,854.272522 520.218445,853.762024 523.151489,853.840698 
	C540.513733,854.306152 557.658508,852.781067 574.597595,848.704529 
	C597.081604,843.293579 619.407959,837.432678 641.385498,828.057129 
M410.916931,768.635681 
	C402.558594,763.211426 394.300781,757.648254 387.262207,750.983093 
	C385.328064,751.470581 384.546600,752.597473 383.719971,753.613098 
	C377.132629,761.706970 368.277008,764.273926 358.348389,763.589294 
	C354.118835,763.297546 352.698151,765.723694 350.773682,768.998596 
	C373.342834,771.140320 395.474487,770.867188 417.728027,772.829468 
	C415.664276,771.552429 413.600525,770.275391 410.916931,768.635681 
M376.022675,661.532166 
	C384.518524,673.273254 392.218109,685.610413 401.539948,696.979248 
	C406.167084,691.383423 405.616302,677.909058 401.622009,671.468567 
	C396.959015,663.949951 380.277374,654.645081 372.722534,656.427673 
	C372.932495,658.412231 374.569611,659.502502 376.022675,661.532166 
M259.048737,530.398560 
	C257.124329,527.486084 255.265869,524.527283 253.261292,521.671082 
	C249.469955,516.268982 248.768280,516.122559 243.465027,520.111816 
	C241.698563,521.440613 238.324844,522.154236 240.225952,525.684937 
	C244.499985,533.622498 249.809509,540.900391 255.600281,547.728027 
	C258.618927,551.287292 262.028046,547.730652 264.895142,546.203125 
	C267.691406,544.713379 266.769531,542.277649 265.456940,540.175720 
	C263.520966,537.075378 261.463470,534.050903 259.048737,530.398560 
M215.873550,524.724792 
	C222.759628,537.534912 231.661545,548.997803 240.007080,560.832458 
	C241.255951,562.603577 242.718933,563.926147 245.002869,562.560608 
	C247.723404,560.933960 246.077423,559.032776 245.006348,557.502380 
	C236.604401,545.497803 228.130051,533.543701 219.629410,521.608643 
	C218.689911,520.289612 217.537735,518.595215 215.577850,519.765381 
	C213.498932,521.006592 214.835876,522.644470 215.873550,524.724792 
M220.745071,493.867126 
	C222.734039,496.186859 223.746475,498.746063 224.099014,501.910889 
	C224.978729,509.808289 228.027954,511.276428 234.706650,507.543762 
	C235.573914,507.059021 236.410919,506.520386 237.265625,506.012909 
	C239.368896,504.764191 239.896027,503.285187 238.304367,501.145416 
	C235.043411,496.761536 231.920776,492.275055 228.706924,487.855713 
	C226.832611,485.278381 224.967010,483.297913 221.385071,485.790314 
	C218.056183,488.106598 218.218658,490.428223 220.745071,493.867126 
M346.185699,630.353577 
	C348.572754,632.851135 349.171814,636.984680 353.414337,637.912720 
	C351.836914,634.542358 349.541443,631.598450 347.914124,628.322632 
	C340.629913,613.659607 330.584961,600.803833 321.366272,587.412292 
	C319.475494,584.665649 317.280884,581.848145 312.180328,581.355164 
	C322.945557,598.579834 335.135223,613.648499 346.185699,630.353577 
M400.795502,744.846619 
	C405.373474,748.212219 409.747620,751.899353 415.469757,753.976501 
	C413.449402,747.584351 411.868042,741.162720 407.204132,734.608582 
	C404.889282,738.518311 398.695251,738.114807 400.795502,744.846619 
z"/>
<path fill="#000000" opacity="1.000000" stroke="none" 
	d="
M749.532715,498.455566 
	C761.124146,497.300140 772.222900,498.851349 783.342163,498.785828 
	C787.454407,498.761627 789.055481,501.682220 789.285583,505.415649 
	C789.530457,509.386719 787.954041,513.029724 783.873352,513.037659 
	C762.618042,513.079163 741.360107,514.644104 720.111389,513.206787 
	C716.524841,512.964233 714.493530,510.095306 713.992554,506.852509 
	C713.454956,503.372681 715.410645,500.888153 718.769470,499.581848 
	C720.840210,498.776459 722.971802,498.684540 725.139343,498.672424 
	C733.115662,498.627899 741.091797,498.567657 749.532715,498.455566 
z"/>
<path fill="#000000" opacity="1.000000" stroke="none" 
	d="
M761.067261,808.553955 
	C770.662781,811.428040 776.271606,819.169312 775.130737,827.476013 
	C773.781555,837.299255 766.676514,843.994568 757.681458,844.222900 
	C749.855469,844.421448 744.598450,840.370056 741.382080,833.893494 
	C738.220642,827.527405 738.575562,820.781677 743.019348,815.009399 
	C747.402039,809.316589 753.356506,806.805603 761.067261,808.553955 
M753.690796,833.830444 
	C750.309448,829.580566 753.126221,824.826660 753.003418,819.717590 
	C750.072510,824.211426 750.418823,830.562256 753.690796,833.830444 
z"/>
<path fill="#000000" opacity="1.000000" stroke="none" 
	d="
M292.896790,437.912476 
	C296.381775,444.589294 293.389252,449.878479 286.339447,450.340210 
	C268.706268,451.495117 251.077774,450.299805 233.448090,450.201233 
	C227.595459,450.168518 224.536758,447.066040 224.700485,442.176392 
	C224.830154,438.304626 226.603409,435.733765 230.731995,435.722290 
	C249.873322,435.669098 269.014893,435.703644 288.156403,435.717957 
	C289.898254,435.719238 291.398254,436.371033 292.896790,437.912476 
z"/>
<path fill="#000000" opacity="1.000000" stroke="none" 
	d="
M759.330688,436.103424 
	C762.559448,436.288208 765.372925,436.565033 768.192383,436.655609 
	C772.588135,436.796814 774.980347,439.141998 775.438232,443.343628 
	C775.876099,447.362396 773.058472,450.575378 768.579956,450.923981 
	C764.111877,451.271790 759.605896,451.184509 755.116333,451.193542 
	C745.801086,451.212311 736.484924,451.230896 727.170898,451.110809 
	C724.529724,451.076721 721.819824,450.853729 719.274963,450.198608 
	C715.794556,449.302490 713.143799,447.104279 713.567383,443.139557 
	C713.959595,439.468933 716.286621,437.254700 720.090271,436.676300 
	C728.205322,435.442200 736.359375,436.113495 744.498291,436.068665 
	C749.304688,436.042175 754.111450,436.094910 759.330688,436.103424 
z"/>
<path fill="#000000" opacity="1.000000" stroke="none" 
	d="
M494.686035,528.882446 
	C501.436249,530.135559 507.723938,529.928406 514.046814,529.201843 
	C521.005737,528.402344 527.969299,528.236816 534.942444,529.362549 
	C540.520020,530.262878 546.131714,530.983643 551.748901,531.594177 
	C555.136902,531.962463 557.279602,533.610596 558.344604,536.784241 
	C559.584167,540.478149 558.159912,542.646179 554.429382,543.201416 
	C552.465759,543.493774 550.439514,543.419800 548.441589,543.419617 
	C523.613708,543.417175 498.785645,543.348206 473.958038,543.423645 
	C468.807190,543.439331 463.660461,544.034058 458.507111,544.250244 
	C454.759460,544.407593 452.299225,542.536255 452.072510,538.790222 
	C451.855072,535.198181 453.766327,532.345093 457.493927,532.234558 
	C469.817810,531.869080 481.795776,527.934387 494.686035,528.882446 
z"/>
<path fill="#000000" opacity="1.000000" stroke="none" 
	d="
M517.998169,502.139282 
	C508.731995,506.781281 498.820770,507.906158 488.517242,512.205811 
	C490.779572,504.696167 487.049011,502.776031 482.451538,501.071747 
	C477.998016,499.420807 473.134491,498.315002 470.069641,494.069336 
	C468.253906,491.554047 467.295502,488.757874 467.104095,485.722900 
	C466.823608,481.275421 469.375122,478.814636 473.800354,479.227051 
	C480.856232,479.884644 487.619934,481.753113 493.554474,485.629120 
	C503.122589,491.878296 512.190247,492.512268 521.513489,485.029541 
	C525.774902,481.609344 531.073425,481.434723 536.266663,482.997742 
	C538.500854,483.670197 540.739258,484.620117 541.155151,487.399017 
	C541.545593,490.006683 540.182068,491.896576 538.358032,493.455902 
	C536.013428,495.460266 533.069824,496.292542 530.157349,496.900482 
	C525.844238,497.800842 521.915039,499.439850 517.998169,502.139282 
z"/>
<path fill="#000000" opacity="1.000000" stroke="none" 
	d="
M571.732056,416.703705 
	C563.510376,426.283630 554.410156,424.046356 547.878113,411.127106 
	C545.895935,410.851471 545.055725,412.546844 543.883850,413.592163 
	C541.270813,415.922760 538.203796,416.268097 535.754272,414.104706 
	C533.253662,411.896118 534.869690,408.946960 536.500610,406.932343 
	C541.333130,400.962830 548.005676,397.786163 555.405701,396.840118 
	C568.489929,395.167419 579.456177,400.340973 589.188599,408.645416 
	C590.934814,410.135406 592.098877,411.979218 591.241821,414.352753 
	C590.245911,417.110718 587.779419,416.268768 585.698242,416.413544 
	C581.332153,416.717255 578.535278,413.350037 575.201843,411.669189 
	C573.288513,412.994598 572.963684,414.934937 571.732056,416.703705 
z"/>
<path fill="#000000" opacity="1.000000" stroke="none" 
	d="
M463.305725,702.076538 
	C458.572266,700.092102 455.490601,696.979431 454.153229,692.403198 
	C452.543488,686.895020 456.263153,682.224976 461.954346,682.782104 
	C467.049042,683.280762 471.857513,684.912903 474.372223,689.824585 
	C476.006195,693.016113 476.186493,696.659546 473.984283,699.765015 
	C471.363159,703.461182 467.584686,703.370117 463.305725,702.076538 
z"/>
</svg>