 

<svg
 
    viewBox="0 0 139.15996 17.630039"
    version="1.1"
    id="masthead"
    xmlns="http://www.w3.org/2000/svg"
    xmlns:svg="http://www.w3.org/2000/svg">
    <defs
        id="defs1" />
    <g
        id="layer1"
        style="display:inline"
        transform="translate(-23.296707,-102.01704)">
        <g
            id="g3"
            transform="matrix(0.02688008,0,0,0.02386994,35.709321,98.598046)"
            style="display:inline">
            <path
                fill="#000000"
                opacity="1"
                stroke="none"
                d="m 309.79651,828.26306 c -26.95709,-16.58722 -52.03845,-35.04925 -73.18988,-58.23858 -31.11563,-34.11359 -56.94704,-71.88465 -74.1594,-114.88984 -16.70105,-41.72766 -26.59397,-85.0285 -27.1434,-130.29944 -0.55081,-45.38678 5.67359,-89.76138 20.23769,-132.64654 14.43251,-42.49762 36.89102,-80.72076 65.09018,-115.73068 19.95958,-24.78029 43.30784,-45.71836 69.1989,-63.82187 25.43649,-17.78569 52.40942,-33.02602 81.15097,-44.97156 5.6398,-2.34402 11.03097,-5.35837 18.48944,-6.20351 -4.43802,6.53605 -8.7056,12.15511 -11.86728,18.42824 -0.2428,0.48172 -1.08734,0.86064 -1.69281,0.92935 -11.30005,1.28238 -19.99436,7.82872 -25.89218,16.43534 -11.25208,16.41983 -27.55899,26.08632 -43.48944,36.6376 -51.03881,33.80487 -87.00409,80.30826 -113.16416,135.03333 -15.67544,32.79199 -24.46209,67.44461 -29.24457,103.34283 -3.94075,29.58014 -4.00315,59.12619 -0.68386,88.69107 2.08223,18.54627 5.8511,36.7981 11.76301,54.5517 0.36238,1.08832 0.85626,2.13275 1.73569,4.29712 28.30919,-12.5213 57.13566,-23.26911 85.72926,-34.33057 -0.93521,-3.90491 -2.89792,-5.82404 -4.23349,-8.09491 -1.44269,-2.453 -3.1284,-2.79486 -5.80946,-1.50037 -9.04221,4.36609 -12.97949,3.61353 -19.60829,-4.14611 -10.85469,-12.70642 -19.92812,-26.69983 -28.38014,-41.0697 -4.05274,-6.89033 -4.22611,-13.96973 1.4167,-20.36451 1.71922,-1.9483 1.95245,-3.74887 0.19505,-5.72345 -0.22041,-0.24762 -0.36824,-0.56024 -0.59064,-0.80566 -5.50172,-6.07169 -8.36119,-12.67343 -3.06099,-20.23358 6.08495,-8.67954 13.78354,-15.07004 25.13262,-14.6756 4.06131,0.14117 6.91423,2.84772 9.20434,6.17856 16.04723,23.33981 32.13909,46.64902 48.24047,69.95157 6.2507,9.04614 12.54159,18.06494 18.86477,27.0606 1.31931,1.8769 2.68494,3.78107 5.48395,5.13697 -1.39191,-4.91651 1.45056,-6.57257 5.10693,-7.28693 8.46064,-1.6532 14.38004,-6.66675 20.04249,-12.99328 11.36221,-12.69489 24.00524,-24.08625 39.19696,-32.21863 2.52716,-1.35285 3.75949,-2.80677 2.96975,-5.8841 -0.73736,-2.87329 -0.86355,-5.90649 -1.21515,-8.87448 -0.21951,-1.85287 -1.09475,-3.15741 -2.95932,-3.56436 -23.58633,-5.14758 -30.75344,-22.59509 -31.61972,-43.75525 -0.49752,-12.15344 -2.41458,-23.76431 -6.29644,-35.20239 -1.97599,-5.8223 -3.56076,-11.77481 -4.08927,-17.97 -0.80441,-9.42996 1.71637,-17.79541 7.71445,-24.81281 -0.39261,-2.33853 -2.03534,-3.41076 -3.14923,-4.80197 -10.53311,-13.15497 -11.94013,-27.02307 -3.74625,-41.77716 1.79483,-3.23181 1.70084,-5.35169 -0.38797,-8.41 -4.73022,-6.92579 -8.23095,-14.28986 -2.81308,-22.64081 1.04401,-1.60916 -0.0566,-3.22199 -0.47964,-4.79807 -2.51642,-9.37634 -4.82865,-18.71878 -1.45932,-28.44729 2.1723,-6.27231 5.82754,-11.27481 11.69,-14.34455 3.31641,-1.7366 4.38794,-3.8318 3.74994,-7.5706 -1.79263,-10.50487 -1.14304,-20.98624 5.71014,-29.5242 6.99426,-8.71373 15.97803,-15.64558 22.75464,-24.75494 3.86142,-5.19068 10.91242,-5.22825 17.11685,-5.41069 3.24335,-0.0954 5.1673,-1.24733 5.20667,-4.58007 0.16983,-14.37365 18.80411,-27.37317 32.14435,-27.90474 8.73318,-0.34797 17.49057,-3.56544 24.41086,-8.87034 11.9996,-9.19844 32.46838,-10.36103 45.16995,-1.49813 5.61731,3.9197 9.74347,3.18399 14.79541,-0.0242 9.52307,-6.0475 20.13177,-6.67512 30.84954,-4.93716 9.57959,1.55342 16.90485,6.73434 21.25428,15.68147 0.42297,0.87009 1.06201,1.63513 1.73712,2.65491 9.01251,-3.62138 18.19116,-3.97295 27.46246,-1.93597 12.96302,2.84805 24.16339,14.6081 25.84381,27.37434 0.38428,2.91914 1.67652,3.50958 4.18055,3.61444 6.09698,0.25528 11.77642,1.97643 16.98596,5.23123 2.61706,1.63512 5.13318,3.62067 5.9909,6.49555 1.41303,4.73605 4.85669,6.93193 8.68537,9.45877 14.21057,9.3788 16.9685,23.39746 14.78699,39.10569 -0.30634,2.20533 -0.99976,4.22124 1.66314,5.54525 14.17908,7.04974 16.29572,19.47326 14.69196,33.45175 -0.26349,2.29675 -0.76026,4.64987 -1.6366,6.77606 -1.8999,4.60925 -2.59442,8.6601 0.22675,13.55377 2.72778,4.73169 0.0184,9.96152 -2.51551,14.17099 -3.30517,5.49094 -2.79022,9.85779 0.15808,15.51413 6.25324,11.99704 4.2063,24.06146 -3.11975,35.00974 -3.42694,5.12127 -4.88958,8.90457 -0.99792,14.95373 5.45807,8.4841 5.01367,18.41788 2.50586,28.08448 -0.54267,2.09191 -1.04645,4.24884 -1.98139,6.17517 -6.29321,12.96557 -6.82464,26.95791 -7.50024,40.93686 -0.6192,12.81115 -4.70276,24.06268 -14.43921,32.93051 -3.03717,2.7662 -6.37482,4.90976 -10.22784,6.03241 -3.65369,1.0646 -5.16663,2.95025 -5.7436,6.89602 -1.42382,9.7381 -1.75799,9.7489 6.52466,14.67621 14.94971,8.89356 27.69855,20.25714 37.92688,34.29907 3.73792,5.13141 8.25238,8.34998 14.41803,9.8371 13.35797,3.22211 25.12201,10.55847 38.06659,15.00073 28.81824,9.88977 58.04871,18.64789 86.08612,30.75122 9.57166,4.1319 9.87232,3.97022 12.50409,-6.18719 6.60687,-25.49854 11.0921,-51.30682 12.48767,-77.70422 2.65558,-50.22806 -5.56396,-98.68616 -24.07562,-145.19532 -20.31055,-51.02905 -50.2229,-95.77533 -91.64252,-132.34411 -14.64923,-12.93361 -30.30664,-24.54201 -47.37262,-34.11656 -7.30255,-4.09694 -13.03631,-9.23574 -17.15789,-16.80588 -4.98664,-9.15909 -13.22834,-15.74933 -22.7461,-19.54997 -10.48095,-4.18525 -16.4685,-12.23424 -22.6474,-21.24218 2.86048,-0.23364 4.94715,0.89713 7.05768,1.6368 40.33728,14.13653 77.04926,34.88434 110.2193,61.70804 25.40485,20.54422 46.88684,44.83655 65.82861,71.46734 34.6355,48.69513 55.59211,102.78211 65.15283,161.59793 4.64869,28.5979 5.93201,57.27787 3.57758,86.08506 -1.99811,24.44659 -6.99792,48.34118 -13.68866,71.98388 -15.03693,53.13532 -40.81549,100.41504 -76.32519,142.47437 -34.31849,40.64844 -76.8653,70.0169 -125.633,90.76099 -26.29706,11.18579 -53.24719,20.2055 -81.4469,25.14721 -34.98511,6.13092 -70.05038,6.90558 -105.47272,3.45209 -37.81344,-3.68659 -74.03903,-12.96643 -109.2904,-26.61633 -17.43945,-6.75287 -33.96695,-15.43781 -50.49878,-24.89826 M 415.29816,378.70721 c 9.72461,-5.52658 19.86093,-9.32406 31.36508,-8.04586 15.8425,1.76025 29.70105,7.34393 39.47668,20.56057 1.8219,2.4632 3.37534,2.95777 6.20981,2.17807 8.31537,-2.28732 16.76187,-2.7926 25.1012,-0.16168 3.83648,1.21033 6.13586,0.12174 8.26959,-3.20569 4.75299,-7.41205 11.69928,-12.20437 19.89313,-15.1915 23.85119,-8.69503 46.42486,-2.66772 63.22284,17.53296 8.59216,10.33265 6.73327,8.26175 17.42474,2.21665 3.15735,-1.78522 3.76178,-4.07916 2.74609,-7.52478 -2.00683,-6.8082 -6.7467,-11.79282 -10.78204,-17.26444 -5.38409,-7.30029 -7.90784,-15.13067 -5.88019,-24.36444 2.57385,-11.72082 4.80115,-23.70291 2.97608,-35.65185 -5.55994,-36.40134 -25.67511,-61.86788 -59.66669,-75.90683 -23.05225,-9.52086 -47.01721,-12.80025 -71.9173,-8.88069 -19.31647,3.04064 -38.02499,7.78956 -53.755,19.84693 -30.22556,23.16849 -42.04544,54.09266 -36.06949,91.54651 2.38827,14.96833 2.24731,28.87162 -9.02963,40.58371 -0.90732,0.94236 -1.54224,2.17423 -2.18982,3.33515 -5.10449,9.15048 -3.34183,14.16611 6.14673,18.3229 3.81277,1.67032 6.57153,1.47504 8.61816,-2.64486 3.76611,-7.58127 9.98853,-12.78263 17.84003,-17.28083 m 8.39172,190.09931 c 4.34848,3.89514 8.82971,7.60785 13.97848,10.43616 6.91404,3.79803 13.08561,8.5523 18.47571,14.32904 7.13361,7.64526 15.90012,12.45343 25.98316,15.09594 5.50869,1.44367 11.10931,2.18524 16.73587,2.72626 21.17242,2.03577 41.31592,-0.0955 58.21167,-14.87073 14.42041,-12.61065 28.88342,-25.23108 41.87048,-39.30578 16.11823,-17.46802 25.08917,-38.22986 25.7442,-62.26776 0.1626,-5.9679 1.77552,-6.9426 8.60334,-5.36155 8.16278,1.89017 14.32104,-1.20599 17.61523,-8.91964 0.65173,-1.52603 1.31061,-3.09912 1.61029,-4.71643 1.12085,-6.04841 2.15778,-12.1196 2.1546,-18.3013 -0.006,-11.58298 1.7024,-22.84147 5.68732,-33.78171 2.1654,-5.9451 3.50494,-12.15814 3.45355,-18.5538 -0.0401,-4.99747 -3.86584,-7.78803 -8.37616,-5.74106 -4.98541,2.2626 -8.7691,5.52832 -9.41827,11.79788 -1.01746,9.82611 -0.64087,19.63132 -0.59271,29.44836 0.0176,3.59861 -0.53699,6.939 -2.67048,9.93048 -1.95935,2.74726 -4.77307,2.82596 -7.64087,2.40207 -2.85577,-0.42211 -4.09503,-2.38348 -4.58331,-5.15707 -0.81628,-4.63675 -0.68469,-9.28925 -0.67151,-13.95212 0.0192,-6.82925 0.0357,-13.65918 -0.0498,-20.48755 -0.0196,-1.56857 0.21326,-3.59518 -2.2215,-3.77923 -2.30835,-0.17444 -9.42065,6.63061 -9.20172,9.06988 1.17487,13.08844 -3.82263,24.13233 -11.27331,34.32154 -20.66291,28.2579 -54.73487,27.6618 -75.99829,4.02206 -11.33277,-12.59921 -15.44178,-27.63861 -13.54127,-44.37146 0.37745,-3.32275 -0.0203,-6.20087 -3.80108,-6.94681 -4.36258,-0.86075 -8.67948,-2.09503 -13.29346,-0.90143 -6.26675,1.62116 -6.52447,2.03214 -5.97916,8.50006 1.60416,19.02665 -4.96398,35.22443 -19.02142,47.70441 -18.09341,16.06311 -40.55032,17.61768 -60.87787,4.70093 -15.8403,-10.0654 -23.17331,-25.1478 -23.52014,-43.79706 -0.12482,-6.71261 -2.75864,-9.53528 -9.61536,-10.76733 -1.56961,1.63714 -1.19522,3.72351 -1.1849,5.67679 0.05,9.48846 -0.0585,18.97525 0.72198,28.45535 0.30643,3.72207 -0.13965,7.44809 -5.05423,8.38699 -4.59371,0.87763 -8.66763,-1.06302 -10.64932,-5.4324 -1.63,-3.59397 -1.78561,-7.42899 -1.55209,-11.27512 0.4552,-7.49704 0.29886,-14.98517 -0.0682,-22.47833 -0.2793,-5.70166 -2.39746,-10.34866 -7.49548,-13.27942 -2.45728,-1.41266 -5.08045,-3.08701 -7.89878,-1.12085 -2.78756,1.94464 -3.06234,5.06879 -2.67407,8.11578 0.67325,5.2836 1.80542,10.45221 3.82208,15.44831 2.55597,6.3323 4.20182,12.90335 5.07932,19.73828 1.35416,10.54718 1.40051,21.23779 3.73148,31.68091 1.46405,6.55917 5.27377,11.05252 11.19226,13.79593 4.32949,2.00683 6.4682,0.68335 7.39203,-3.89865 0.4902,-2.43134 1.20962,-4.836 2.04943,-7.17222 0.94019,-2.61544 3.30329,-2.38107 5.48334,-2.34298 2.45743,0.0429 2.86243,1.68518 3.05219,3.69925 0.54544,5.78918 1.38928,11.55502 1.78588,17.3526 1.93979,28.35736 12.86542,52.41284 34.49088,72.14453 m 134.13654,200.04736 c -26.35462,-4.68658 -52.64179,-9.68835 -78.70466,-15.84613 -15.37451,-3.63257 -30.80877,-6.99353 -46.04092,-11.2232 -4.40082,-1.22199 -7.16693,-3.27466 -7.07831,-8.17194 0.0207,-1.14331 -0.0588,-2.46014 -0.59469,-3.41516 -5.28836,-9.4245 -2.94211,-18.12506 1.43264,-27.2486 5.52393,-11.52014 8.75779,-24.14959 16.48816,-34.60608 5.40445,-7.31042 5.61905,-7.3219 -1.2254,-13.58264 -26.46197,-24.20514 -42.90823,-53.95874 -49.91248,-89.08166 -0.92138,-4.62043 -0.89733,-9.55756 -3.58795,-14.495 -0.55059,1.90991 -1.11783,3.12653 -1.23108,4.38403 -1.48233,16.46119 -1.59634,32.92121 0.46836,49.34467 1.45102,11.54199 4.12347,23.05872 4.17889,34.59674 0.0303,6.31012 2.53232,8.76508 6.86719,11.27942 0.86426,0.50128 1.71393,1.02899 2.55676,1.5658 21.48334,13.68249 20.78784,37.73657 12.58521,56.81897 -1.59766,3.71673 -2.28186,6.17248 -0.14606,9.40716 12.35602,18.7135 18.39233,40.16321 26.08426,60.87 3.01675,8.12115 1.47244,9.83233 -7.24039,9.52923 -24.78152,-0.86212 -49.55771,-1.87591 -74.3367,-2.8117 -2.36438,-0.0893 -4.62561,-0.58661 -6.80115,-1.46808 -1.78213,-0.72217 -3.18151,-1.84674 -3.42608,-3.92523 -0.26392,-2.24292 -0.56949,-4.60004 -3.59174,-4.36335 -2.66614,0.20874 -5.52032,0.62604 -6.11386,4.00855 -0.5564,3.17071 -2.70691,4.31286 -5.48947,4.97455 -2.94608,0.70062 -5.96561,0.56079 -8.92038,0.94531 -8.1658,1.06268 -16.29236,2.4267 -25.43967,3.82526 14.20816,9.4887 27.76831,17.84594 42.29639,24.54095 33.40634,15.39484 69.23956,23.67316 103.8927,35.4129 1.57178,0.53247 2.88754,0.16492 4.33524,-0.33166 10.71337,-3.67462 21.64425,-6.67292 32.68502,-9.07709 29.7345,-6.47504 59.52799,-12.68604 89.34281,-18.78357 33.73273,-6.89868 67.52197,-13.52087 101.26849,-20.35278 8.02026,-1.6236 16.10675,-3.07855 25.04382,-6.22608 -3.06158,-0.92712 -4.91919,-1.59759 -6.8283,-2.05108 -19.75544,-4.69245 -39.84351,-7.64826 -59.78864,-11.34467 -24.03314,-4.45416 -48.12042,-8.6159 -73.02801,-13.09784 m -268.58451,6.22663 c 7.09211,0.76965 14.13959,1.34796 20.24005,-4.39527 -1.90698,-2.01904 -3.99514,-2.64935 -5.89321,-3.61047 -16.19724,-8.20178 -32.53019,-16.14508 -48.25084,-25.25836 -2.34913,-1.3617 -4.42345,-3.00153 -5.68926,-5.45734 -1.30786,-2.53735 -1.55926,-5.17908 0.19881,-7.56024 1.808,-2.44879 4.3609,-2.02423 6.8296,-1.17743 1.57111,0.53888 3.1362,1.13812 4.62277,1.87427 16.86393,8.35162 33.70893,16.74151 50.56684,25.10534 4.32837,2.14752 8.70114,4.15564 13.41897,5.38538 5.34043,1.39191 9.75962,-0.19385 13.91108,-3.49475 2.68002,-2.13092 3.0021,-4.17383 0.52502,-6.59394 -6.29983,-6.1549 -12.0611,-12.85424 -19.78046,-17.47674 -14.16751,-8.48364 -28.97912,-15.75256 -43.50515,-23.55945 -3.07981,-1.65521 -6.26972,-3.16791 -8.75388,-5.71515 -2.73602,-2.80542 -4.63245,-6.19098 -2.37866,-9.8648 2.48904,-4.05744 6.22412,-2.21051 9.32272,-0.6175 30.27799,15.56629 61.72687,29.24414 86.62671,53.53681 2.74902,2.68206 7.8804,1.33398 10.94064,-2.47693 2.82843,-3.52222 -0.23971,-5.12995 -2.34094,-6.77826 -4.25931,-3.34107 -7.67944,-7.36817 -10.61569,-11.86249 -4.4646,-6.83356 -9.20856,-13.50275 -13.33307,-20.5354 -4.13773,-7.05524 -9.76038,-11.96771 -17.22375,-15.25732 -13.26456,-5.8465 -26.12665,-12.5376 -38.84812,-19.48981 -2.35888,-1.28912 -4.58117,-2.74005 -6.21997,-4.92304 -1.73157,-2.30651 -2.44897,-4.71563 -0.70468,-7.37585 1.69672,-2.58765 4.21127,-3.35718 6.97485,-2.59692 2.37741,0.65405 4.76667,1.63116 6.84388,2.94903 10.46926,6.64234 21.71762,11.74915 33.22534,16.12561 12.5748,4.78223 21.91293,12.77551 28.82364,24.23078 4.98068,8.25586 10.21768,16.40094 16.51873,23.78997 3.12574,3.66547 7.03034,5.54572 11.68857,5.95087 8.04718,0.70001 12.50916,-5.58728 9.19303,-12.99139 -2.04807,-4.57276 -4.819,-8.73218 -7.68891,-12.84369 -8.00866,-11.47364 -16.16101,-22.86145 -23.73022,-34.62201 -4.71262,-7.32215 -10.6348,-12.6485 -18.74411,-15.73126 -18.54663,-7.05054 -36.53873,-15.34931 -54.22333,-24.32996 -11.69022,-5.93664 -21.52252,-2.96613 -26.72308,8.95953 -2.76227,6.33429 -6.67301,9.96448 -13.38507,11.04224 -8.02016,1.28778 -12.96903,6.45441 -15.94204,13.64935 -1.4129,3.41938 -3.70433,5.7309 -6.78833,7.66193 -8.14326,5.09869 -16.15367,10.40961 -24.0509,15.52844 0.16687,2.36792 1.29146,3.86353 2.29366,5.37421 5.80056,8.74371 11.61093,17.48126 17.48222,26.17755 12.55461,18.59534 27.51089,35.11505 43.65697,50.62707 5.65283,5.43097 11.90832,9.05158 20.90957,8.62739 m 346.68479,-7.7259 c 27.16858,5.6742 54.95257,8.19648 81.71344,15.94941 2.15265,0.62371 3.85241,0.24939 5.39917,-1.42054 10.86535,-11.73077 22.63488,-22.54223 34.17779,-33.58526 1.49781,-1.43293 3.32422,-2.90241 2.39417,-6.11695 -85.85034,0.97803 -171.79962,-1.87494 -257.86191,0.55866 22.6398,2.14667 43.99545,10.20032 66.41531,13.33929 22.38337,3.13391 44.61695,7.33802 67.76203,11.27539 m -47.98383,-49.73883 c 1.24005,2.5423 2.36951,5.14637 3.74451,7.61347 2.45239,4.39984 6.83667,2.16839 10.35119,2.6792 2.70795,0.39367 3.49726,-2.01337 4.021,-4.21814 3.57092,-15.03186 7.97253,-29.84711 11.203,-44.97638 8.26062,-38.68695 12.96222,-77.685 11.44629,-117.31165 -0.15094,-3.9461 -0.42865,-7.8324 -2.01776,-11.61096 -2.16522,0.56238 -2.17133,2.08521 -2.38184,3.56738 -1.14611,8.07025 -3.07409,15.96668 -5.08422,23.86298 -5.02259,19.73004 -14.76313,37.00281 -27.36786,52.72803 -8.32019,10.37988 -16.76038,20.7196 -27.6413,28.66339 -2.29938,1.67871 -2.64166,3.40851 -0.79645,5.83941 4.25904,5.61091 7.01538,12.03901 9.70179,18.51636 4.71655,11.37226 9.63787,22.65961 14.82165,34.64691 m 6.33099,-322.39438 c -7.60882,-7.38159 -16.69592,-10.2275 -27.26904,-9.91564 -25.51068,0.7525 -40.62768,19.03189 -35.59057,43.52822 4.47644,21.76966 25.70184,36.1355 45.44311,31.08878 25.22015,-6.44739 40.49103,-41.93976 17.4165,-64.70136 m -119.47772,29.33976 c -1.53283,-7.32633 -7.37546,-10.81589 -12.95373,-15.46598 -1.92618,7.02466 -4.46976,12.43576 -11.969,13.232 -7.332,0.7785 -12.20859,-2.10394 -14.11514,-9.48154 -1.1536,0.46173 -2.04639,0.52802 -2.30765,0.96872 -2.58252,4.35574 -6.63531,3.6687 -10.59643,3.14789 -2.20655,-0.2901 -4.33265,-1.01321 -4.99628,-3.48218 -0.59668,-2.21982 0.6669,-3.84778 2.20749,-5.22055 1.11502,-0.99356 2.28161,-1.96008 3.5405,-2.75647 9.487,-6.00183 19.58242,-9.85861 31.08837,-8.73956 2.45075,0.23834 4.97858,4e-4 5.31623,-3.09854 0.33011,-3.03022 -2.39078,-3.2854 -4.39923,-3.70972 -5.039,-1.06448 -10.11545,-1.96664 -15.19742,-2.81006 -15.41095,-2.55759 -28.50055,5.11551 -34.03305,19.67478 -2.31256,6.0856 -2.52457,12.31686 -2.19791,18.67227 0.76856,14.95312 12.27915,30.14667 26.71613,33.99801 21.99466,5.86747 37.10519,-4.92794 45.71896,-25.76837 1.33594,-3.23224 1.48517,-6.08636 -1.82184,-9.1607 m 57.7027,239.40936 c 41.80737,-21.49737 71.06329,-71.65057 70.69952,-89.50818 -4.51599,3.85443 -8.75085,7.22553 -12.71289,10.89148 -20.04449,18.54639 -40.43792,36.5976 -64.13653,50.55231 -6.42963,3.78595 -11.99744,8.96948 -16.90256,14.68847 -4.40787,5.13923 -4.13904,7.91431 0.89142,12.185 8.10995,6.88507 11.13126,7.1034 22.16104,1.19092 m -57.57086,64.30066 c 6.15423,-0.21387 12.30847,-0.42749 18.46271,-0.64172 4.11374,-0.14319 5.29333,-2.29834 3.9537,-5.97852 -1.08008,-2.96716 -2.49924,-5.8172 -3.4779,-8.8139 -3.09507,-9.47699 -6.07508,-18.99189 -9.05375,-28.50647 -1.01153,-3.23108 -3.02801,-5.53168 -6.10031,-6.84796 -4.74661,-2.03357 -9.6438,-3.62879 -14.66528,-4.85511 -2.43747,-0.59521 -4.24869,0.10663 -5.49176,2.26935 -4.29761,7.47717 -9.78116,14.24982 -12.67136,22.5672 -2.83709,8.16467 -5.97073,16.23834 -9.30975,24.21149 -1.69388,4.04486 -0.94431,5.67273 3.51874,6.20581 11.29965,1.34979 22.59976,0.703 34.83496,0.38983 m 97.09619,-2.04364 c 2.3363,-1.46777 0.88415,-3.29163 0.28632,-4.83753 -2.04017,-5.27484 -4.06556,-10.56933 -6.43689,-15.69903 -4.5362,-9.81311 -9.24744,-19.54706 -14.03254,-29.24158 -0.87896,-1.78082 -2.00238,-4.80072 -4.56628,-3.4906 -6.13983,3.13745 -13.03552,5.65997 -15.5921,13.11994 -4.20508,12.27008 -8.30524,24.57653 -12.58478,36.82043 -1.20538,3.44849 0.0861,4.69214 3.33209,4.70367 16.29969,0.0578 32.60199,0.20667 49.59418,-1.3753 M 289.75623,598.77014 c 3.03732,4.57935 5.97259,9.23041 9.13348,13.72278 6.25104,8.8844 16.00253,11.87329 25.68259,14.91486 0.18725,0.0588 0.51821,-0.33985 1.05346,-0.71558 -0.003,-2.39044 -1.7352,-4.09625 -3.05734,-5.90521 -2.35577,-3.22333 -5.06601,-6.19599 -7.31638,-9.48657 -13.06686,-19.10749 -26.5567,-37.91199 -40.33517,-56.50928 -2.79303,-3.7699 -5.49606,-3.53278 -10.5928,0.21063 -3.65128,2.6817 -0.61997,4.6344 0.65771,6.62714 7.90274,12.32501 17.49103,23.52539 24.77445,37.14123 M 641.3855,828.05713 c 1.27075,-0.9364 3.06482,-1.40698 3.19269,-4.1297 -43.90754,7.79895 -87.33991,16.62061 -131.60132,27.7511 4.17804,2.59399 7.24157,2.08349 10.17462,2.16217 17.36224,0.46545 34.50702,-1.05963 51.4461,-5.13617 22.48401,-5.41095 44.81037,-11.27185 66.78791,-20.6474 M 410.91693,768.63568 c -8.35834,-5.42425 -16.61615,-10.98743 -23.65472,-17.65259 -1.93415,0.48749 -2.71561,1.61438 -3.54224,2.63001 -6.58734,8.09387 -15.44296,10.66083 -25.37158,9.97619 -4.22956,-0.29174 -5.65024,2.1344 -7.57471,5.40931 22.56915,2.14172 44.70081,1.86859 66.95435,3.83087 -2.06375,-1.27704 -4.12751,-2.55408 -6.8111,-4.19379 M 376.02267,661.53217 c 8.49585,11.74108 16.19544,24.07824 25.51728,35.44708 4.62713,-5.59583 4.07635,-19.07019 0.0821,-25.51068 -4.66299,-7.51862 -21.34464,-16.82349 -28.89948,-15.0409 0.20997,1.98456 1.84708,3.07483 3.30014,5.1045 M 259.04874,530.39856 c -1.92441,-2.91248 -3.78287,-5.87128 -5.78745,-8.72748 -3.79134,-5.4021 -4.49301,-5.54852 -9.79626,-1.55926 -1.76647,1.32879 -5.14019,2.04242 -3.23908,5.57312 4.27403,7.93756 9.58356,15.21545 15.37433,22.04309 3.01865,3.55926 6.42777,0.003 9.29486,-1.52491 2.79627,-1.48974 1.87439,-3.92547 0.5618,-6.0274 -1.93597,-3.10034 -3.99347,-6.12482 -6.4082,-9.77716 m -43.17519,-5.67377 c 6.88608,12.81012 15.78799,24.27301 24.13353,36.10767 1.24887,1.77112 2.71185,3.09369 4.99579,1.72815 2.72053,-1.62665 1.07455,-3.52783 0.003,-5.05823 -8.40195,-12.00458 -16.8763,-23.95868 -25.37694,-35.89374 -0.9395,-1.31903 -2.09168,-3.01342 -4.05156,-1.84326 -2.07892,1.24121 -0.74197,2.87909 0.2957,4.95941 m 4.87152,-30.85766 c 1.98897,2.31973 3.0014,4.87893 3.35394,8.04376 0.87972,7.8974 3.92894,9.36554 10.60764,5.63287 0.86726,-0.48474 1.70427,-1.02337 2.55897,-1.53085 2.10328,-1.24872 2.63041,-2.72772 1.03875,-4.86749 -3.26096,-4.38388 -6.38359,-8.87037 -9.59745,-13.28971 -1.87431,-2.57733 -3.73991,-4.5578 -7.32185,-2.0654 -3.32889,2.31629 -3.16641,4.63791 -0.64,8.07682 M 346.1857,630.35358 c 2.38705,2.49755 2.98611,6.6311 7.22864,7.55914 -1.57743,-3.37036 -3.8729,-6.31427 -5.50022,-9.59009 -7.28421,-14.66302 -17.32916,-27.5188 -26.54785,-40.91034 -1.89078,-2.74664 -4.08539,-5.56414 -9.18594,-6.05713 10.76523,17.22467 22.95489,32.29334 34.00537,48.99842 m 54.6098,114.49304 c 4.57797,3.3656 8.95212,7.05273 14.67426,9.12988 -2.02036,-6.39215 -3.60172,-12.81378 -8.26563,-19.36792 -2.31485,3.90973 -8.50888,3.50623 -6.40863,10.23804 z"
                id="path1"
                style="display:inline" />
            <path
                fill="#000000"
                opacity="1"
                stroke="none"
                d="m 49.006521,111.22244 c 0.181447,0.0299 0.35046,0.025 0.520419,0.008 0.187057,-0.0191 0.374238,-0.023 0.561677,0.004 0.149925,0.0215 0.300768,0.0387 0.451759,0.0533 0.09107,0.009 0.148665,0.0481 0.177293,0.12388 0.03332,0.0882 -0.005,0.13993 -0.105242,0.15318 -0.05278,0.007 -0.107248,0.005 -0.160952,0.005 -0.667376,-5e-5 -1.334756,-0.002 -2.002124,1e-4 -0.138455,3.7e-4 -0.2768,0.0146 -0.415322,0.0197 -0.100737,0.004 -0.166869,-0.0409 -0.172963,-0.13033 -0.0058,-0.0858 0.04553,-0.15385 0.145728,-0.15649 0.331267,-0.009 0.653236,-0.10264 0.999727,-0.08 z"
                id="path6"
                style="stroke-width:0.0253303"
                transform="matrix(37.202271,0,0,41.893696,-1328.4678,-4130.6365)" />
            <path
                fill="#000000"
                opacity="1"
                stroke="none"
                d="m 49.633153,110.58408 c -0.249075,0.1108 -0.51549,0.13766 -0.79245,0.24029 0.06081,-0.17926 -0.03947,-0.22509 -0.163046,-0.26577 -0.119711,-0.0394 -0.250443,-0.0658 -0.332826,-0.16715 -0.04881,-0.06 -0.07457,-0.12678 -0.07972,-0.19923 -0.0075,-0.10616 0.06105,-0.1649 0.179996,-0.15505 0.189663,0.0157 0.371472,0.0603 0.530993,0.15281 0.257191,0.14917 0.500931,0.1643 0.75154,-0.0143 0.114547,-0.0816 0.256972,-0.0858 0.396567,-0.0485 0.06005,0.016 0.120224,0.0387 0.131403,0.10506 0.01049,0.0622 -0.02616,0.10736 -0.07519,0.14458 -0.06302,0.0478 -0.142148,0.0677 -0.220435,0.0822 -0.115937,0.0215 -0.221554,0.0606 -0.32684,0.12505 z"
                id="path7"
                style="stroke-width:0.0253303"
                transform="matrix(37.202271,0,0,41.893696,-1328.4678,-4130.6365)" />
            <path
                fill="#000000"
                opacity="1"
                stroke="none"
                d="m 51.077525,108.54474 c -0.221,0.22867 -0.465615,0.17527 -0.641197,-0.13311 -0.05328,-0.007 -0.07587,0.0339 -0.107366,0.0588 -0.07024,0.0556 -0.15268,0.0639 -0.218523,0.0122 -0.06722,-0.0527 -0.02378,-0.12311 0.02006,-0.1712 0.129899,-0.1425 0.309258,-0.21832 0.508171,-0.2409 0.351705,-0.0399 0.646478,0.0836 0.908087,0.28179 0.04694,0.0356 0.07823,0.0796 0.05519,0.13623 -0.02677,0.0658 -0.09307,0.0457 -0.149011,0.0492 -0.117361,0.007 -0.192541,-0.0731 -0.282145,-0.11325 -0.05143,0.0316 -0.06016,0.078 -0.09327,0.12018 z"
                id="path8"
                style="display:inline;stroke-width:0.0253303"
                transform="matrix(37.202271,0,0,41.893696,-1328.4678,-4130.6365)" />
        </g>
    </g>
    <g
        id="layer2"
        style="display:inline"
        transform="translate(-23.296707,-102.01704)">
        <text
            xml:space="preserve"
            style="font-size:22.5778px;text-align:start;writing-mode:lr-tb;direction:ltr;text-anchor:start;display:inline;fill:#000000;stroke-width:0.264583"
            x="22.370665"
            y="118.32904"
            id="text1"><tspan
         id="tspan1"
         style="font-style:normal;font-variant:normal;font-weight:bold;font-stretch:normal;font-size:22.5778px;font-family:'Gill Sans';-inkscape-font-specification:'Gill Sans, Bold';font-variant-ligatures:normal;font-variant-caps:normal;font-variant-numeric:normal;font-variant-east-asian:normal;stroke-width:0.264583"
         x="22.370665"
         y="118.32904">C     TANZA</tspan></text>
    </g>
    <g
        id="g4"
        style="display:inline"
        transform="matrix(1,0,0,0.89919663,-23.296707,-91.635603)">
        <text
            xml:space="preserve"
            style="font-size:22.5778px;text-align:start;text-decoration:underline;text-decoration-line:underline;writing-mode:lr-tb;direction:ltr;text-anchor:start;display:inline;fill:#000000;stroke-width:0.264583"
            x="59.172695"
            y="118.47622"
            id="text3"><tspan
         id="tspan3"
         style="font-style:normal;font-variant:normal;font-weight:bold;font-stretch:normal;font-size:22.5778px;font-family:'Gill Sans';-inkscape-font-specification:'Gill Sans, Bold';font-variant-ligatures:normal;font-variant-caps:normal;font-variant-numeric:normal;font-variant-east-asian:normal;display:inline;stroke-width:0.264583"
         x="59.172695"
         y="118.47622">S</tspan></text>
    </g>
</svg>